<?xml version="1.0" encoding="UTF-8" standalone="no"?>
<!-- Created with Inkscape (http://www.inkscape.org/) -->

<svg
   width="171.99998"
   height="24"
   viewBox="0 0 45.508329 6.3500001"
   version="1.1"
   id="svg1"
   xmlns="http://www.w3.org/2000/svg"
   xmlns:svg="http://www.w3.org/2000/svg">
  <defs
     id="defs1">
    <symbol id="img" viewBox="0 0 45.508329 6.3500001">
      <g
        id="layer1">
        <path
          style="opacity:1;fill:none;stroke:var(--svg-default-color);stroke-width:0.0529167;stroke-linecap:butt;stroke-linejoin:round;stroke-dasharray:none;stroke-dashoffset:0;paint-order:stroke fill markers"
          d="M 1.0583333,3.1750001 7.408333,3.175"
          id="tarumi1" />
        <path
          style="fill:none;stroke:var(--svg-default-color);stroke-width:0.0529167;stroke-linecap:butt;stroke-linejoin:round;stroke-dasharray:none;stroke-dashoffset:0;paint-order:stroke fill markers"
          d="m 1.0583333,3.1750001 c 1.5875,0 3.1749999,-1.5875 3.1749999,-3.1750001"
          id="tarumi2" />
        <path
          style="fill:none;stroke:var(--svg-default-color);stroke-width:0.0529167;stroke-linecap:butt;stroke-linejoin:round;stroke-dasharray:none;stroke-dashoffset:0;paint-order:stroke fill markers"
          d="m 7.4083331,3.1750001 c -1.5875,0 -3.1749999,-1.5875 -3.1749999,-3.1750001"
          id="tarumi3" />
        <path
          style="opacity:1;fill:none;stroke:var(--svg-default-color);stroke-width:0.0529167;stroke-linecap:butt;stroke-linejoin:round;stroke-dasharray:none;stroke-dashoffset:0;paint-order:stroke fill markers"
          d="M 4.2333333,0 V 4.2333335"
          id="tarumi4" />
        <path
          style="opacity:1;fill:none;stroke:var(--svg-default-color);stroke-width:0.0529167;stroke-linecap:butt;stroke-linejoin:round;stroke-dasharray:none;stroke-dashoffset:0;paint-order:stroke fill markers"
          d="M 7.5405945,2.9104166 7.2760112,3.4395833"
          id="tarumi5" />
        <rect
          style="opacity:1;fill:none;stroke:var(--svg-default-color);stroke-width:0.0529167;stroke-linecap:butt;stroke-linejoin:round;stroke-dasharray:none;stroke-dashoffset:0;paint-order:stroke fill markers"
          id="suma1"
          width="4.2333331"
          height="0.52916664"
          x="8.4666662"
          y="3.7041667" />
        <path
          style="opacity:1;fill:none;stroke:var(--svg-default-color);stroke-width:0.0529167;stroke-linecap:butt;stroke-linejoin:round;stroke-dasharray:none;stroke-dashoffset:0;paint-order:stroke fill markers"
          d="M 8.4666663,4.2333335 V 3.7041666 l 2.1166667,-1.5874999 2.116666,1.5874999 v 0.5291669"
          id="suma2" />
        <path
          style="opacity:1;fill:none;stroke:var(--svg-default-color);stroke-width:0.0529167;stroke-linecap:butt;stroke-linejoin:round;stroke-dasharray:none;stroke-dashoffset:0;paint-order:stroke fill markers"
          d="M 10.583333,2.1166667 V 3.7041666"
          id="suma3" />
        <path
          style="opacity:1;fill:none;stroke:var(--svg-default-color);stroke-width:0.0529167;stroke-linecap:butt;stroke-linejoin:round;stroke-dasharray:none;stroke-dashoffset:0;paint-order:stroke fill markers"
          d="m 9.5249996,2.9104166 v 0.79375"
          id="suma4" />
        <path
          style="opacity:1;fill:none;stroke:var(--svg-default-color);stroke-width:0.0529167;stroke-linecap:butt;stroke-linejoin:round;stroke-dasharray:none;stroke-dashoffset:0;paint-order:stroke fill markers"
          d="m 11.641666,2.9104166 v 0.79375"
          id="suma5" />
        <path
          style="opacity:1;fill:none;stroke:var(--svg-default-color);stroke-width:0.0529167;stroke-linecap:butt;stroke-linejoin:round;stroke-dasharray:none;stroke-dashoffset:0;paint-order:stroke fill markers"
          d="M 9.1722218,3.175 H 11.994444"
          id="suma6" />
        <path
          style="opacity:1;fill:none;stroke:var(--svg-default-color);stroke-width:0.0529167;stroke-linecap:butt;stroke-linejoin:round;stroke-dasharray:none;stroke-dashoffset:0;paint-order:stroke fill markers"
          d="M 11.288888,2.6458333 H 9.8777779"
          id="suma7" />
        <rect
          style="display:inline;fill:var(--svg-accent-color);fill-opacity:1;fill-rule:evenodd;stroke:none;stroke-width:0.0785586;stroke-linecap:round;stroke-dasharray:none;stroke-dashoffset:0"
          id="nagata1"
          width="0.2361701"
          height="1.881482"
          x="15.363301"
          y="2.3518527" />
        <rect
          style="display:inline;fill:var(--svg-accent-color);fill-opacity:1;fill-rule:evenodd;stroke:none;stroke-width:0.0785586;stroke-linecap:round;stroke-dasharray:none;stroke-dashoffset:0"
          id="nagata2"
          width="0.23616858"
          height="1.881482"
          x="13.788847"
          y="2.3518527" />
        <rect
          style="display:inline;fill:var(--svg-accent-color);fill-opacity:1;fill-rule:evenodd;stroke:none;stroke-width:0.0785586;stroke-linecap:round;stroke-dasharray:none;stroke-dashoffset:0"
          id="nagata3"
          width="1.7319016"
          height="0.23518343"
          x="13.828209"
          y="2.8222256" />
        <path
          style="display:inline;fill:var(--svg-accent-color);fill-opacity:1;fill-rule:evenodd;stroke:none;stroke-width:0.0785586;stroke-linecap:round;stroke-dasharray:none;stroke-dashoffset:0"
          d="m 13.513318,2.1166697 v 0.3135792 c 0.788795,0.1048894 1.576012,0.1041626 2.361681,0 V 2.1166697 c -0.795318,0.2126992 -1.582267,0.2053777 -2.361681,0 z"
          id="nagata4" />
        <path
          style="display:inline;fill:none;fill-opacity:1;fill-rule:evenodd;stroke:var(--svg-accent-color);stroke-width:0.0529167;stroke-linecap:butt;stroke-dasharray:none;stroke-dashoffset:0"
          d="M 15.599471,4.233333 V 2.4694459 l 0.275528,-0.039197 V 2.1166667 c -0.80143,0.2153185 -1.587826,0.202714 -2.361681,0 v 0.3135822 l 0.275529,0.039197 v 1.7638872"
          id="nagata5" />
        <path
          style="display:inline;fill:none;fill-opacity:1;fill-rule:evenodd;stroke:var(--svg-accent-color);stroke-width:0.0392795;stroke-linecap:round;stroke-dasharray:none;stroke-dashoffset:0"
          d="m 14.025016,2.8222221 h 1.338287 V 2.4851259 c -0.443949,0.031091 -0.890007,0.03162 -1.338287,0 z"
          id="nagata6" />
        <path
          style="display:inline;fill:none;fill-opacity:1;fill-rule:evenodd;stroke:var(--svg-accent-color);stroke-width:0.0392795;stroke-linecap:butt;stroke-dasharray:none;stroke-dashoffset:0"
          d="M 14.025016,4.233333 V 3.0574073 h 1.338287 V 4.233333"
          id="nagata7" />
        <path
          style="opacity:1;fill:none;stroke:var(--svg-mountain-color);stroke-width:0.0529167;stroke-linecap:butt;stroke-linejoin:round;stroke-dasharray:none;stroke-dashoffset:0;paint-order:stroke fill markers"
          d="m 6.3499996,1.5875 c 2.1166668,1e-7 3.1750001,-1.32291666 5.2916664,-1.32291666 2.116667,0 3.175001,0.79375016 5.291667,0.79375006"
          id="mount1" />
        <path
          style="fill:none;stroke:var(--svg-mountain-color);stroke-width:0.0529167;stroke-linecap:butt;stroke-linejoin:round;stroke-dasharray:none;stroke-dashoffset:0;paint-order:stroke fill markers"
          d="m 16.933334,1.0583335 c 2.116667,1e-7 3.174999,-0.52916673 5.291666,-0.52916673 2.116667,0 3.175,1.05833343 5.291666,1.05833333"
          id="mount2" />
        <path
          style="fill:none;stroke:var(--svg-mountain-color);stroke-width:0.0529167;stroke-linecap:butt;stroke-linejoin:round;stroke-dasharray:none;stroke-dashoffset:0;paint-order:stroke fill markers"
          d="m 27.516666,1.5875001 c 2.116667,1e-7 3.174999,-1.32291676 5.291666,-1.32291676 2.116667,0 3.175001,2.11666686 5.291667,2.11666676"
          id="mount3" />
        <path
          id="hyogo1"
          style="opacity:1;fill:none;stroke:var(--svg-default-color);stroke-width:0.0529167;stroke-linecap:butt;stroke-linejoin:round;stroke-dasharray:none;stroke-dashoffset:0;paint-order:stroke fill markers"
          d="m 16.668749,2.38125 v 1.8520833 h 0.529167 V 2.9104167 c 0.529167,-0.264583 1.587501,-0.2645831 2.116667,0 v 1.3229166 h 0.529166 V 2.38125 h -0.529166 -2.116667 z" />
        <path
          style="display:inline;fill:none;fill-opacity:1;fill-rule:evenodd;stroke:var(--svg-default-color);stroke-width:0.0458335;stroke-linecap:round;stroke-dasharray:none;stroke-dashoffset:0"
          d="M 21.166666,4.2333335 20.937497,2.8583282 c 0.815113,-0.3976927 1.561111,-0.4649091 2.291679,-0.4583386 0.730567,-0.00657 1.476566,0.060644 2.291677,0.4583369 l -0.229167,1.375007"
          id="hyogo2" />
        <path
          style="display:inline;fill:none;fill-opacity:1;fill-rule:evenodd;stroke:var(--svg-default-color);stroke-width:0.0458335;stroke-linecap:round;stroke-dasharray:none;stroke-dashoffset:0"
          d="M 22.083338,2.4916574 V 4.2333335"
          id="hyogo3" />
        <path
          style="display:inline;fill:none;fill-opacity:1;fill-rule:evenodd;stroke:var(--svg-default-color);stroke-width:0.0458335;stroke-linecap:round;stroke-dasharray:none;stroke-dashoffset:0"
          d="M 24.375015,2.4916574 V 4.2333335"
          id="hyogo4" />
        <path
          style="opacity:1;fill:none;stroke:var(--svg-default-color);stroke-width:0.0529167;stroke-linecap:butt;stroke-linejoin:round;stroke-dasharray:none;stroke-dashoffset:0;paint-order:stroke fill markers"
          d="M 26.722916,4.2333335 26.9875,3.175 27.252083,4.2333335"
          id="harbor1" />
        <circle
          style="opacity:1;fill:none;stroke:var(--svg-default-color);stroke-width:0.0529167;stroke-linecap:butt;stroke-linejoin:round;stroke-dasharray:none;stroke-dashoffset:0;paint-order:stroke fill markers"
          id="harbor2"
          cx="26.987499"
          cy="3.175"
          r="0.79374999" />
        <path
          style="opacity:1;fill:none;stroke:var(--svg-default-color);stroke-width:0.0264583;stroke-linecap:butt;stroke-linejoin:round;stroke-dasharray:none;stroke-dashoffset:0;paint-order:stroke fill markers"
          d="M 26.9875,2.38125 V 3.175 h 0.793749"
          id="harbor3" />
        <path
          style="opacity:1;fill:none;stroke:var(--svg-default-color);stroke-width:0.0264583;stroke-linecap:butt;stroke-linejoin:round;stroke-dasharray:none;stroke-dashoffset:0;paint-order:stroke fill markers"
          d="M 26.9875,3.175 27.548766,2.613734"
          id="harbor4" />
        <path
          style="opacity:1;fill:none;stroke:var(--svg-default-color);stroke-width:0.0264583;stroke-linecap:butt;stroke-linejoin:round;stroke-dasharray:none;stroke-dashoffset:0;paint-order:stroke fill markers"
          d="M 26.9875,3.175 27.200182,2.38125"
          id="harbor5" />
        <path
          style="opacity:1;fill:none;stroke:var(--svg-default-color);stroke-width:0.0264583;stroke-linecap:butt;stroke-linejoin:round;stroke-dasharray:none;stroke-dashoffset:0;paint-order:stroke fill markers"
          d="M 26.9875,3.175 27.384375,2.4875923"
          id="harbor6" />
        <path
          style="opacity:1;fill:none;stroke:var(--svg-default-color);stroke-width:0.0264583;stroke-linecap:butt;stroke-linejoin:round;stroke-dasharray:none;stroke-dashoffset:0;paint-order:stroke fill markers"
          d="M 26.9875,3.175 27.674906,2.778125"
          id="harbor7" />
        <path
          style="opacity:1;fill:none;stroke:var(--svg-default-color);stroke-width:0.0264583;stroke-linecap:butt;stroke-linejoin:round;stroke-dasharray:none;stroke-dashoffset:0;paint-order:stroke fill markers"
          d="M 26.9875,3.175 27.754201,2.9695624"
          id="harbor8" />
        <path
          style="opacity:1;fill:none;stroke:var(--svg-default-color);stroke-width:0.0264583;stroke-linecap:butt;stroke-linejoin:round;stroke-dasharray:none;stroke-dashoffset:0;paint-order:stroke fill markers"
          d="m 26.9875,3.175 0.766701,0.2054373"
          id="harbor9" />
        <path
          style="opacity:1;fill:none;stroke:var(--svg-default-color);stroke-width:0.0264583;stroke-linecap:butt;stroke-linejoin:round;stroke-dasharray:none;stroke-dashoffset:0;paint-order:stroke fill markers"
          d="m 26.9875,3.175 0.687406,0.396875"
          id="harbor10" />
        <path
          style="opacity:1;fill:none;stroke:var(--svg-default-color);stroke-width:0.0264583;stroke-linecap:butt;stroke-linejoin:round;stroke-dasharray:none;stroke-dashoffset:0;paint-order:stroke fill markers"
          d="m 26.9875,3.175 0.561266,0.5612656"
          id="harbor11" />
        <path
          style="opacity:1;fill:none;stroke:var(--svg-default-color);stroke-width:0.0264583;stroke-linecap:butt;stroke-linejoin:round;stroke-dasharray:none;stroke-dashoffset:0;paint-order:stroke fill markers"
          d="m 26.9875,3.175 0.396875,0.6874076"
          id="harbor12" />
        <path
          style="opacity:1;fill:none;stroke:var(--svg-default-color);stroke-width:0.0264583;stroke-linecap:butt;stroke-linejoin:round;stroke-dasharray:none;stroke-dashoffset:0;paint-order:stroke fill markers"
          d="m 26.9875,3.175 0.205435,0.7667034"
          id="harbor13" />
        <path
          style="opacity:1;fill:none;stroke:var(--svg-default-color);stroke-width:0.0264583;stroke-linecap:butt;stroke-linejoin:round;stroke-dasharray:none;stroke-dashoffset:0;paint-order:stroke fill markers"
          d="M 26.9875,3.175 V 3.96875"
          id="harbor14" />
        <path
          style="fill:none;stroke:var(--svg-default-color);stroke-width:0.0264583;stroke-linecap:butt;stroke-linejoin:round;stroke-dasharray:none;stroke-dashoffset:0;paint-order:stroke fill markers"
          d="m 26.987499,2.3812501 v 0.79375 H 26.19375"
          id="harbor15" />
        <path
          style="fill:none;stroke:var(--svg-default-color);stroke-width:0.0264583;stroke-linecap:butt;stroke-linejoin:round;stroke-dasharray:none;stroke-dashoffset:0;paint-order:stroke fill markers"
          d="M 26.987499,3.1750001 26.426233,2.6137341"
          id="harbor16" />
        <path
          style="fill:none;stroke:var(--svg-default-color);stroke-width:0.0264583;stroke-linecap:butt;stroke-linejoin:round;stroke-dasharray:none;stroke-dashoffset:0;paint-order:stroke fill markers"
          d="m 26.987499,3.1750001 -0.212682,-0.79375"
          id="harbor17" />
        <path
          style="fill:none;stroke:var(--svg-default-color);stroke-width:0.0264583;stroke-linecap:butt;stroke-linejoin:round;stroke-dasharray:none;stroke-dashoffset:0;paint-order:stroke fill markers"
          d="M 26.987499,3.1750001 26.590624,2.4875924"
          id="harbor18" />
        <path
          style="fill:none;stroke:var(--svg-default-color);stroke-width:0.0264583;stroke-linecap:butt;stroke-linejoin:round;stroke-dasharray:none;stroke-dashoffset:0;paint-order:stroke fill markers"
          d="M 26.987499,3.1750001 26.300093,2.7781251"
          id="harbor19" />
        <path
          style="fill:none;stroke:var(--svg-default-color);stroke-width:0.0264583;stroke-linecap:butt;stroke-linejoin:round;stroke-dasharray:none;stroke-dashoffset:0;paint-order:stroke fill markers"
          d="M 26.987499,3.1750001 26.220798,2.9695625"
          id="harbor20" />
        <path
          style="fill:none;stroke:var(--svg-default-color);stroke-width:0.0264583;stroke-linecap:butt;stroke-linejoin:round;stroke-dasharray:none;stroke-dashoffset:0;paint-order:stroke fill markers"
          d="M 26.987499,3.1750001 26.220798,3.3804374"
          id="harbor21" />
        <path
          style="fill:none;stroke:var(--svg-default-color);stroke-width:0.0264583;stroke-linecap:butt;stroke-linejoin:round;stroke-dasharray:none;stroke-dashoffset:0;paint-order:stroke fill markers"
          d="m 26.987499,3.1750001 -0.687406,0.396875"
          id="harbor22" />
        <path
          style="fill:none;stroke:var(--svg-default-color);stroke-width:0.0264583;stroke-linecap:butt;stroke-linejoin:round;stroke-dasharray:none;stroke-dashoffset:0;paint-order:stroke fill markers"
          d="M 26.987499,3.1750001 26.426233,3.7362657"
          id="harbor23" />
        <path
          style="fill:none;stroke:var(--svg-default-color);stroke-width:0.0264583;stroke-linecap:butt;stroke-linejoin:round;stroke-dasharray:none;stroke-dashoffset:0;paint-order:stroke fill markers"
          d="M 26.987499,3.1750001 26.590624,3.8624077"
          id="harbor24" />
        <path
          style="fill:none;stroke:var(--svg-default-color);stroke-width:0.0264583;stroke-linecap:butt;stroke-linejoin:round;stroke-dasharray:none;stroke-dashoffset:0;paint-order:stroke fill markers"
          d="M 26.987499,3.1750001 26.782064,3.9417035"
          id="harbor25" />
        <path
          style="fill:none;stroke:var(--svg-default-color);stroke-width:0.0264583;stroke-linecap:butt;stroke-linejoin:round;stroke-dasharray:none;stroke-dashoffset:0;paint-order:stroke fill markers"
          d="m 26.987499,3.1750001 v 0.79375"
          id="harbor26" />
        <path
          style="display:inline;fill:var(--svg-accent-color);fill-rule:evenodd;stroke:none;stroke-width:0.0293981;stroke-dasharray:none"
          d="m 28.251618,4.2333335 c 0.374167,-1.1422632 0.587964,-2.7928251 0,-3.96875016 h 1.175925 c -0.587961,1.17592506 -0.374166,2.82648696 3e-6,3.96875016"
          id="port-tower" />
        <path
          style="display:inline;fill:none;fill-opacity:1;fill-rule:evenodd;stroke:var(--svg-default-color);stroke-width:0.0503967;stroke-dasharray:none;stroke-dashoffset:0"
          d="m 30.162499,4.2333335 c 1.499295,-3.48462109 3.63312,-1.0510534 4.787699,0"
          id="hotel1" />
        <path
          style="display:inline;fill:none;fill-opacity:1;fill-rule:evenodd;stroke:var(--svg-default-color);stroke-width:0.0503967;stroke-dasharray:none;stroke-dashoffset:0"
          d="m 30.414483,3.7293639 3.981349,2e-6"
          id="hotel2" />
        <path
          style="display:inline;fill:none;fill-opacity:1;fill-rule:evenodd;stroke:var(--svg-default-color);stroke-width:0.0503967;stroke-dasharray:none;stroke-dashoffset:0"
          d="m 31.220832,2.7214287 h 1.864682"
          id="hotel3" />
        <path
          style="display:inline;fill:var(--svg-default-color);fill-opacity:1;fill-rule:evenodd;stroke:var(--svg-default-color);stroke-width:0.0503967;stroke-dasharray:0.0503967, 0.0503967;stroke-dashoffset:0"
          d="m 40.216665,1.0583334 -3.175,0.79375"
          id="air1" />
        <path
          style="display:inline;fill:none;fill-opacity:1;fill-rule:evenodd;stroke:var(--svg-default-color);stroke-width:0.0503967;stroke-dasharray:none"
          d="m 41.081409,0.8756703 0.418605,-0.11092921 -0.153416,0.18699427 0.280019,-0.0700061 0.154062,-0.19507993 0.653108,-0.17334706 c 0.270473,-0.0724694 0.197998,-0.34294762 -0.07248,-0.27047031 l -1.217131,0.3261254 -0.257215,-0.14849739 -0.405712,0.10870671 z"
          id="air2" />
        <path
          style="display:inline;fill:none;fill-opacity:1;fill-rule:evenodd;stroke:var(--svg-default-color);stroke-width:0.0503967;stroke-dasharray:none;stroke-opacity:1"
          d="m 41.653737,0.57737111 -0.307139,0.37436425 0.280019,-0.0700061 0.297601,-0.3768328"
          id="air3" />
        <path
          style="display:inline;fill:none;fill-opacity:1;fill-rule:evenodd;stroke:var(--svg-sea-color);stroke-width:0.0607172;stroke-dasharray:0.0607172, 0.121434;stroke-dashoffset:0"
          d="m 4.7853134,5.2578107 c 0.834249,-0.2770265 1.6684978,-0.5178039 2.5027744,-0.4732189 0.8342489,0.044676 1.6684979,0.3637493 2.5027459,0.6263665 0.8342493,0.2627098 1.6684973,0.4000893 2.5027463,0.2705032 0.83425,-0.129588 1.668499,-0.4931559 2.502748,-0.7139075 0.834249,-0.2206609 1.668497,-0.2404164 2.502747,-0.03942 0.834248,0.2009961 1.668525,0.5710893 2.502774,0.7266841 0.83425,0.1555967 1.668498,0.055642 2.502748,-0.1957389 0.834248,-0.2513807 1.668498,-0.5890325 2.502745,-0.6633414 0.834386,-0.074218 1.668527,0.1350249 2.502666,0.4104206 0.834413,0.2753938 1.668553,0.5453527 2.502967,0.5304898 0.834139,-0.014861 1.668279,-0.3114617 2.502692,-0.5821444 0.834139,-0.270592 1.668552,-0.4444928 2.502692,-0.3420927 0.834141,0.1024927 1.668552,0.4554591 2.502693,0.6928839 0.834413,0.237425 1.668552,0.297145 2.502692,0.1178073 0.834414,-0.1792469 1.668552,-0.5515152 2.502965,-0.7309435"
          title="sin(x)"
          id="sea1" />
        <path
          style="display:inline;fill:none;fill-opacity:1;fill-rule:evenodd;stroke:var(--svg-sea-color);stroke-width:0.0607172;stroke-dasharray:0.0607172, 0.121434;stroke-dashoffset:0"
          d="M 1.0583333,5.2916668 C 1.8031755,5.2912809 2.5480174,5.3367788 3.2928594,5.4300422 4.8887406,5.6298667 6.484671,5.9978003 8.0805495,6.152488 9.676428,6.3071756 11.272306,6.207806 12.868185,5.9578917 14.464066,5.7079778 16.059945,5.3722926 17.65582,5.298418 c 1.596143,-0.073786 3.191812,0.1342374 4.787483,0.4080273 1.596191,0.2737881 3.191861,0.5421702 4.788056,0.5273941 1.59567,-0.014784 3.191339,-0.3096436 4.787532,-0.5787475 1.595672,-0.2690133 3.191861,-0.4418989 4.787532,-0.3400972 1.595672,0.1018964 3.191863,0.4528015 4.787534,0.6888407 0.952161,0.1408052 1.90414,0.2187424 2.856041,0.2208674"
          title="sin(x)"
          id="sea2" />
        <path
          d="m 7.9994818,5.307516 c -0.032458,0.00295 -0.055177,0.015533 -0.070866,0.039413 -0.00239,0.00364 -0.00433,0.00664 -0.0044,0.0068 -8.85e-5,8.87e-5 -0.00587,6.585e-4 -0.012828,0.00132 -0.072101,0.00657 -0.1368619,0.022565 -0.1942805,0.047912 -0.090185,0.039799 -0.1517766,0.1012357 -0.1622866,0.1618242 -6.896e-4,0.00364 -0.00117,0.011276 -0.00117,0.017464 v 0.011046 l -0.00548,0.00472 c -0.00294,0.00263 -0.01105,0.00896 -0.017929,0.014136 -0.026585,0.02017 -0.032226,0.028749 -0.024343,0.037402 8.602e-4,9.88e-4 0.00209,0.00286 0.00278,0.00426 0.00224,0.0044 0.00495,0.00572 0.011205,0.00564 0.00974,-6.57e-5 0.021792,-0.00394 0.048454,-0.015532 0.039799,-0.01731 0.041345,-0.017851 0.075348,-0.027279 0.032303,-0.00896 0.058732,-0.014908 0.091962,-0.020865 0.010433,-0.00186 0.013215,-0.00217 0.013988,-0.00132 4.603e-4,4.93e-4 0.00487,0.00735 0.00974,0.015073 0.02643,0.041577 0.043509,0.058656 0.066306,0.066462 0.00835,0.00286 0.020325,0.00456 0.026585,0.00378 l 0.0041,-4.932e-4 -0.00379,-0.00634 c -0.00951,-0.015681 -0.017233,-0.034697 -0.020711,-0.051158 -0.00193,-0.00873 -0.00286,-0.029134 -0.00193,-0.040185 4.601e-4,-0.00595 6.896e-4,-0.00672 0.00224,-0.00735 0.00185,-6.585e-4 0.030835,-0.00403 0.046832,-0.00541 0.015997,-0.00132 0.054559,-0.00186 0.069552,-8.201e-4 0.04173,0.00278 0.06731,0.00781 0.132534,0.025965 0.02782,0.00781 0.029907,0.0085 0.039721,0.013445 0.02496,0.012443 0.045209,0.028826 0.09629,0.077742 0.035626,0.034081 0.048917,0.045209 0.06221,0.052087 0.00364,0.00186 0.00672,0.00348 0.00687,0.00364 1.548e-4,1.562e-4 -0.0024,0.00309 -0.00564,0.00657 -0.019166,0.020401 -0.030525,0.042195 -0.030603,0.058809 0,0.00981 0.00402,0.019938 0.012443,0.031454 l 0.00479,0.00649 0.00163,-0.00503 c 0.00301,-0.00919 0.00989,-0.016075 0.022334,-0.022333 0.00332,-0.00169 0.012673,-0.00572 0.020865,-0.00889 0.01762,-0.00695 0.02527,-0.010816 0.029753,-0.014908 l 0.00324,-0.00301 0.00387,0.00186 c 0.00896,0.00433 0.014683,0.00532 0.030139,0.00532 0.014143,-6.57e-5 0.014451,-6.57e-5 0.033617,-0.0041 0.010664,-0.00217 0.022952,-0.00456 0.027434,-0.00518 0.015765,-0.00224 0.032148,-0.00115 0.045131,0.00301 0.00325,9.88e-4 0.00587,0.00164 0.00587,0.00132 0,-3.287e-4 -0.00178,-0.00278 -0.00393,-0.00555 -0.011282,-0.014136 -0.023493,-0.023494 -0.042813,-0.032844 -0.019397,-0.00935 -0.040108,-0.015221 -0.084621,-0.02388 -0.014683,-0.00286 -0.027048,-0.00564 -0.027512,-0.0061 -4.602e-4,-4.931e-4 -0.0034,-0.00695 -0.00641,-0.014367 -0.025729,-0.062213 -0.057568,-0.1193213 -0.09188,-0.1649932 -0.017775,-0.023571 -0.03068,-0.03864 -0.051546,-0.059814 -0.045692,-0.046525 -0.092601,-0.080295 -0.1511785,-0.1090433 l -0.015997,-0.00781 -0.00232,-0.00526 c -0.00309,-0.00687 -0.00433,-0.013446 -0.00387,-0.020711 5.424e-4,-0.00789 0.00317,-0.014367 0.010278,-0.024884 0.00301,-0.00449 0.00571,-0.00866 0.00611,-0.00919 6.275e-4,-0.00115 -0.014219,-0.00115 -0.025889,-1.545e-4 z"
          id="dolphin1"
          style="display:inline;fill:var(--svg-sea-color);stroke:none;stroke-width:7.72793e-05" />
        <path
          d="m 7.135623,4.8460465 c -0.026637,0.018776 -0.040019,0.04104 -0.041665,0.069564 -2.631e-4,0.00434 -4.439e-4,0.00792 -4.111e-4,0.00809 -3.21e-5,1.216e-4 -0.00476,0.0035 -0.010451,0.00755 -0.059154,0.041745 -0.1072431,0.087973 -0.1442954,0.1386332 -0.058203,0.07956 -0.080825,0.1635615 -0.059634,0.2212867 0.00122,0.0035 0.00462,0.010338 0.00772,0.015714 l 0.00552,0.00957 -0.00239,0.00684 c -0.00123,0.00375 -0.00509,0.013281 -0.00846,0.021205 -0.012938,0.03076 -0.013535,0.041011 -0.00238,0.044562 0.00123,4.931e-4 0.00325,0.00132 0.00456,0.00224 0.00416,0.00265 0.00715,0.00244 0.012524,-6.585e-4 0.00841,-0.00493 0.016901,-0.014316 0.034197,-0.03768 0.025813,-0.034889 0.02688,-0.03613 0.051613,-0.061296 0.023496,-0.02391 0.043409,-0.042277 0.069209,-0.06405 0.00811,-0.00684 0.01036,-0.00848 0.011455,-0.00813 6.399e-4,1.644e-4 0.00789,0.00393 0.015967,0.00818 0.043676,0.022798 0.067006,0.029049 0.090653,0.024404 0.00866,-0.00169 0.019876,-0.00622 0.024913,-0.01001 l 0.0033,-0.00247 -0.00646,-0.00359 c -0.01607,-0.00883 -0.032274,-0.021427 -0.043515,-0.033949 -0.00604,-0.00659 -0.017044,-0.023801 -0.021765,-0.033836 -0.00258,-0.00539 -0.00277,-0.00617 -0.00173,-0.00749 0.00127,-0.00148 0.02469,-0.018904 0.037854,-0.0281 0.013197,-0.00914 0.046321,-0.028888 0.059822,-0.035488 0.037528,-0.018459 0.062196,-0.026893 0.1277608,-0.04378 0.027997,-0.00715 0.030149,-0.0076 0.041122,-0.00822 0.027836,-0.00169 0.053565,0.00235 0.122261,0.01918 0.047908,0.011654 0.064971,0.014678 0.079917,0.014021 0.0041,-3.286e-4 0.00756,-3.286e-4 0.00778,-3.286e-4 2.136e-4,5.59e-5 -5.26e-4,0.00387 -0.00159,0.0085 -0.0064,0.027251 -0.00534,0.051805 0.0029,0.066232 0.00491,0.0085 0.013449,0.015253 0.026502,0.021022 l 0.00741,0.00318 -0.0011,-0.00516 c -0.00198,-0.00947 5.261e-4,-0.018868 0.00818,-0.030509 0.00204,-0.00313 0.00812,-0.011292 0.013625,-0.018133 0.011783,-0.014826 0.016476,-0.022003 0.018313,-0.027787 l 0.00129,-0.00422 0.00429,-3.288e-4 c 0.00993,-8.2e-4 0.015377,-0.00272 0.028763,-0.010453 0.012214,-0.00712 0.012481,-0.00728 0.027067,-0.020353 0.00815,-0.00721 0.0176,-0.015418 0.021171,-0.018203 0.012533,-0.00981 0.027266,-0.01707 0.040589,-0.019959 0.00332,-8.201e-4 0.00591,-0.00148 0.00574,-0.00179 -1.808e-4,-1.644e-4 -0.00295,-0.00148 -0.00619,-0.00284 -0.016837,-0.00661 -0.032092,-0.0086 -0.0535,-0.00703 -0.021474,0.00164 -0.042345,0.00687 -0.085224,0.021631 -0.014148,0.00486 -0.026243,0.00865 -0.026874,0.00847 -6.398e-4,-1.644e-4 -0.00642,-0.00433 -0.012737,-0.00924 -0.053401,-0.041046 -0.1095285,-0.074583 -0.1620795,-0.096982 -0.02718,-0.011522 -0.045892,-0.018115 -0.074546,-0.026031 -0.0628,-0.017508 -0.1203254,-0.02324 -0.1854278,-0.018853 L 7.17943,4.8903235 7.1748,4.8869135 c -0.00611,-0.0044 -0.010472,-0.00947 -0.013701,-0.01601 -0.00347,-0.0071 -0.00445,-0.014021 -0.00354,-0.026688 3.779e-4,-0.00539 6.274e-4,-0.010371 6.895e-4,-0.011013 -2.48e-5,-0.00132 -0.012888,0.00611 -0.022497,0.012805 z"
          id="dolphin2"
          style="display:inline;fill:var(--svg-sea-color);stroke:none;stroke-width:7.72793e-05" />
        <path
          style="display:inline;fill:var(--svg-accent-color);fill-opacity:1;fill-rule:evenodd;stroke:var(--svg-accent-color);stroke-width:0.0445613;stroke-dasharray:none"
          d="m 35.983332,3.3421048 v 0.2228076 h 8.466666 V 3.3421048 Z"
          id="kobebridge1" />
        <path
          style="display:inline;fill:var(--svg-accent-color);fill-opacity:1;fill-rule:evenodd;stroke:var(--svg-accent-color);stroke-width:0.0445613;stroke-dasharray:none"
          d="m 35.983332,4.2333335 c 0,0 1.369299,-2.4508784 4.26579,-2.4508784 2.896492,0 4.255613,2.4508784 4.255613,2.4508784 m -0.579297,0 v 0 c 0,0 -1.225441,-2.0498241 -3.676317,-2.0498241 -2.450879,0 -3.676315,2.0498241 -3.676315,2.0498241"
          id="kobebridge2" />
        <rect
          style="opacity:0;fill:var(--svg-default-color);stroke:none;stroke-width:0.0264583;stroke-linecap:butt;stroke-linejoin:round;stroke-dasharray:none;stroke-dashoffset:0;paint-order:stroke fill markers"
          id="rect27"
          width="45.508331"
          height="7.4083338"
          x="0"
          y="0" />
      </g>
    </symbol>
  </defs>
  <use href="#img" x="0" />
</svg>
